<?xml version="1.0" standalone="no"?><!DOCTYPE svg PUBLIC "-//W3C//DTD SVG 1.1//EN" "http://www.w3.org/Graphics/SVG/1.1/DTD/svg11.dtd"><svg t="1686122880093" class="icon" viewBox="0 0 1024 1024" version="1.1" xmlns="http://www.w3.org/2000/svg" p-id="7228" xmlns:xlink="http://www.w3.org/1999/xlink" width="200" height="200"><path d="M304.597333 719.402667c15.445333 15.488 12.629333 42.453333-5.546666 60.629333-23.978667 23.978667-88.746667 33.706667-88.746667 33.706667s12.202667-67.328 33.664-88.789334c18.176-18.176 45.056-21.077333 60.586667-5.546666z m341.333334-36.992c5.802667 76.672-18.858667 136.874667-79.36 197.418666l-10.410667 10.368-105.813333-154.453333c-34.389333 17.621333-88.021333 3.712-127.317334-35.584-39.338667-39.338667-53.248-93.013333-34.858666-128.170667l-152.618667-105.898666 10.368-10.410667C204.8 396.842667 264.917333 372.266667 340.693333 377.045333c153.6-181.76 341.418667-206.592 465.28-169.386666l7.253334 2.176 2.133333 7.253333c37.205333 123.818667 11.434667 310.698667-169.429333 465.322667z m-41.685334-180.010667c47.701333 0.981333 89.514667-37.077333 92.330667-84.906667a83.285333 83.285333 0 0 0-81.28-89.088c-47.786667-1.024-89.6 37.12-92.373333 84.906667a83.285333 83.285333 0 0 0 81.322666 89.088z" fill="#17233D" p-id="7229"></path></svg>